<?xml version="1.0" standalone="no"?>
<!DOCTYPE svg PUBLIC "-//W3C//DTD SVG 20010904//EN"
 "http://www.w3.org/TR/2001/REC-SVG-20010904/DTD/svg10.dtd">
<svg version="1.0" xmlns="http://www.w3.org/2000/svg"
 width="456.000000pt" height="456.000000pt" viewBox="0 0 456 456"
 preserveAspectRatio="xMidYMid meet">

  <g transform="translate(0.000000,1024.000000) scale(0.100000,-0.100000)"
  fill="#000000" stroke="none">
    <path d="M3307 9663 c-4 -3 -7 -206 -7 -450 l0 -443 -1600 0 -1600 0 0 -447
c0 -247 3 -465 6 -485 6 -32 11 -38 31 -38 17 0 64 -38 165 -135 125 -119 145
-135 175 -135 19 0 32 -3 29 -8 -6 -11 296 -8 314 3 8 5 108 10 222 11 139 1
213 6 222 13 10 8 77 11 220 9 113 -2 206 0 206 3 0 4 190 7 423 8 232 0 558
2 724 3 166 2 305 0 309 -5 4 -4 -19 -8 -52 -8 l-59 -2 60 -7 c81 -10 240 -12
249 -2 4 4 102 7 217 8 152 1 213 4 224 14 11 9 53 11 177 6 90 -4 269 -7 398
-7 150 -1 221 -4 195 -9 -28 -6 -15 -7 42 -3 87 5 215 -11 236 -30 7 -7 18
-13 26 -15 7 -1 19 -9 27 -17 11 -10 11 -15 1 -18 -6 -3 -2 -6 11 -6 12 -1 22
-5 22 -11 0 -5 8 -10 18 -11 11 -1 9 -4 -8 -9 -25 -8 -25 -8 5 -10 26 -1 27
-3 10 -10 -11 -5 -15 -9 -10 -9 15 -1 18 -108 5 -165 -14 -63 -85 -215 -198
-426 -65 -122 -207 -364 -239 -407 -12 -17 -23 -36 -23 -41 0 -6 -3 -12 -7
-14 -5 -1 -39 -50 -77 -108 -70 -107 -185 -271 -196 -280 -4 -3 -26 -32 -50
-65 -25 -33 -56 -74 -70 -91 -14 -17 -38 -48 -55 -70 -16 -21 -70 -85 -118
-141 -70 -81 -94 -103 -115 -104 -15 -1 -40 -2 -56 -4 -46 -4 -98 52 -322 340
-221 285 -513 740 -679 1058 l-20 37 -462 0 c-396 0 -463 -2 -463 -14 0 -8 5
-18 11 -22 8 -5 7 -9 -1 -14 -10 -6 -1 -35 34 -114 27 -59 49 -113 50 -121 1
-8 5 -18 9 -21 14 -14 6 -24 -20 -25 l-28 -1 30 -8 c17 -4 24 -8 17 -9 -7 0
-10 -5 -7 -11 4 -6 -6 -10 -22 -10 -22 0 -25 -2 -13 -10 10 -6 11 -10 3 -10
-8 0 -13 -14 -13 -37 0 -20 3 -33 7 -29 7 6 33 -101 36 -146 1 -9 5 -14 9 -12
7 5 12 -18 9 -38 0 -5 4 -8 9 -8 6 0 10 -9 10 -19 0 -11 5 -23 11 -26 6 -4 8
-13 5 -21 -3 -8 -1 -14 5 -14 6 0 7 -5 3 -12 -4 -6 -3 -8 2 -5 17 10 30 -6 64
-73 18 -35 43 -81 56 -102 13 -21 22 -38 18 -38 -3 0 2 -7 10 -16 9 -8 13 -20
10 -26 -4 -6 4 -8 17 -6 15 2 23 -2 22 -9 -2 -7 3 -13 10 -13 8 0 7 -4 -3 -10
-13 -8 -12 -10 3 -10 10 0 16 -4 13 -9 -4 -5 0 -12 6 -14 10 -4 10 -6 1 -6 -9
-1 -7 -10 6 -31 19 -32 356 -384 723 -755 l218 -220 -302 -299 c-167 -165
-404 -399 -528 -521 -809 -795 -1297 -1273 -1375 -1348 -82 -78 -89 -88 -78
-106 7 -11 10 -27 7 -34 -3 -9 107 -128 302 -326 234 -237 312 -311 330 -311
15 0 42 -17 69 -41 l44 -41 53 25 c67 31 170 108 210 158 17 22 41 39 52 40
12 0 15 3 8 6 -19 7 5 33 32 33 17 0 18 2 6 10 -13 9 -7 14 13 11 4 0 6 5 5
11 -2 7 3 12 10 10 6 -1 11 4 10 10 -2 7 3 12 10 10 6 -1 11 4 10 10 -2 7 3
12 10 10 8 -1 11 2 8 6 -7 12 28 44 39 35 4 -5 5 -3 2 4 -4 7 67 82 179 190
332 317 833 827 821 835 -7 5 -2 8 13 8 20 0 22 2 10 10 -13 8 -12 10 3 10 10
0 15 5 12 10 -3 6 4 10 17 11 13 0 17 3 10 6 -19 7 5 33 32 33 17 0 18 2 6 10
-14 9 -7 14 13 11 5 -1 6 3 3 7 -7 12 28 44 38 35 4 -5 6 -1 4 7 -2 8 3 14 9
13 7 -2 12 3 10 10 -1 6 4 11 10 10 7 -2 12 3 10 10 -1 6 4 11 11 9 8 -1 11 2
8 6 -7 12 28 44 39 35 4 -5 5 -3 1 4 -4 7 8 23 30 40 20 15 57 49 83 74 89 88
189 150 261 163 19 3 50 9 68 12 20 4 32 2 32 -4 0 -6 8 -9 19 -7 28 5 125
-46 109 -57 -9 -7 -6 -8 9 -5 13 3 26 1 29 -4 3 -5 -1 -9 -8 -9 -15 0 52 -59
68 -60 16 0 195 -176 187 -184 -3 -3 2 -6 12 -6 10 0 65 -46 122 -102 57 -57
107 -103 111 -103 15 0 32 -17 27 -26 -4 -5 0 -9 8 -9 22 0 41 -27 25 -33 -7
-3 -3 -6 10 -6 14 -1 26 -10 31 -24 10 -24 109 -125 116 -117 2 3 38 -28 79
-67 42 -40 81 -73 87 -73 6 0 8 -4 5 -8 -3 -5 5 -13 17 -19 12 -5 49 -22 81
-37 33 -15 82 -30 110 -33 28 -3 63 -14 78 -24 14 -11 29 -19 32 -19 6 0 36
55 37 67 1 16 32 42 42 36 5 -3 7 -1 4 4 -8 13 27 46 37 36 4 -5 6 -3 4 2 -1
6 21 55 49 110 28 56 63 135 77 177 27 80 33 111 50 283 2 28 16 84 31 125 14
41 28 96 30 122 4 46 3 47 -58 104 -59 54 -400 383 -697 670 -74 72 -147 142
-162 156 -15 14 -25 28 -21 31 3 4 -1 7 -11 7 -20 0 -31 24 -20 42 5 7 9 28
11 47 2 19 8 38 14 41 6 4 10 10 10 14 -4 25 0 36 11 30 7 -4 8 -3 4 5 -10 15
31 80 169 271 61 85 139 196 172 245 33 50 68 96 77 104 20 17 176 264 176
280 0 6 5 11 11 11 5 0 7 5 4 10 -3 6 2 10 12 10 15 0 16 2 3 10 -12 8 -12 10
5 10 17 0 17 2 5 10 -12 8 -10 10 10 10 20 0 22 2 10 10 -12 8 -10 10 10 11
16 1 19 3 8 6 -23 6 -11 33 16 34 20 0 20 1 1 9 -17 7 -16 9 10 10 30 2 30 2
5 10 -25 8 -25 8 5 10 19 2 23 4 12 7 -24 6 -16 26 14 34 17 5 19 7 6 8 -26 1
-16 24 14 32 20 6 21 7 4 9 -11 1 -15 4 -7 7 6 2 10 9 6 14 -3 5 7 10 23 10
16 1 21 3 11 6 -23 6 -11 33 16 34 19 0 19 1 2 8 -17 7 -17 8 -2 24 9 9 17 19
16 22 -1 21 3 25 28 26 26 1 26 1 3 8 -23 6 -23 7 -7 23 9 10 16 21 15 25 -1
4 8 13 21 19 12 7 17 13 10 16 -13 4 27 88 42 88 5 0 7 4 3 9 -3 5 2 17 11 25
8 9 13 16 9 16 -3 0 2 14 10 30 9 17 20 28 26 25 5 -4 8 -1 7 7 -2 7 2 12 8
11 6 -1 11 4 11 12 0 7 26 66 59 132 32 65 60 125 61 133 1 8 7 16 13 18 5 2
8 7 5 12 -3 5 0 14 7 22 7 7 14 20 16 28 2 8 8 18 14 21 5 3 9 9 9 13 -4 25 0
36 11 30 6 -4 8 -3 5 4 -10 15 3 43 16 35 5 -3 7 -1 4 5 -10 15 3 43 16 35 6
-3 7 -1 3 6 -8 12 41 141 57 152 5 3 8 9 7 13 -3 12 22 66 31 66 5 0 6 6 3 14
-3 7 5 26 18 42 13 16 34 51 48 77 33 64 79 119 92 111 6 -4 8 -2 5 3 -4 6 2
18 13 28 11 10 20 14 20 10 0 -4 8 1 18 13 10 11 25 22 32 24 8 2 21 9 28 16
8 7 17 10 22 7 5 -3 11 -1 15 5 3 5 21 10 38 10 18 0 27 4 20 8 -15 10 130 17
302 16 77 -1 132 1 123 5 -10 3 42 6 115 6 189 1 295 7 271 16 -15 6 -12 8 14
8 17 1 32 6 32 11 0 6 5 10 11 10 5 0 7 -4 4 -10 -8 -13 40 5 82 31 53 33 120
116 143 177 12 31 27 63 33 71 12 14 17 281 8 391 -5 64 -22 119 -35 114 -7
-3 -12 11 -13 33 -1 21 -5 58 -7 83 -3 25 -5 91 -5 147 l-1 103 -1512 2 -1513
3 -28 56 c-27 55 -35 101 -24 147 3 12 2 22 -2 22 -4 0 -7 12 -6 28 1 15 -2
29 -6 32 -5 3 -10 36 -11 72 -2 36 -6 64 -10 61 -5 -2 -8 7 -8 21 0 35 -1 39
-17 55 -8 7 -12 20 -9 28 3 8 -8 39 -24 70 -28 52 -30 63 -30 164 0 59 -3 114
-6 123 -5 14 -54 16 -448 16 -244 0 -446 -3 -449 -7z"/>
    <path d="M1868 7553 c17 -2 47 -2 65 0 17 2 3 4 -33 4 -36 0 -50 -2 -32 -4z"/>
    <path d="M4488 7553 c7 -3 16 -2 19 1 4 3 -2 6 -13 5 -11 0 -14 -3 -6 -6z"/>
    <path d="M6688 7553 c7 -3 16 -2 19 1 4 3 -2 6 -13 5 -11 0 -14 -3 -6 -6z"/>
    <path d="M1888 7533 c7 -3 16 -2 19 1 4 3 -2 6 -13 5 -11 0 -14 -3 -6 -6z"/>
    <path d="M6248 7513 c7 -3 16 -2 19 1 4 3 -2 6 -13 5 -11 0 -14 -3 -6 -6z"/>
    <path d="M7144 5982 c-22 -58 -135 -359 -159 -422 -7 -19 -24 -64 -38 -100
-14 -36 -42 -110 -62 -165 -20 -55 -41 -111 -47 -125 -14 -33 -45 -117 -97
-260 -40 -110 -60 -161 -115 -303 -14 -34 -32 -82 -40 -107 -8 -25 -29 -81
-46 -125 -17 -44 -38 -100 -46 -125 -8 -25 -19 -54 -24 -65 -11 -23 -70 -179
-105 -275 -13 -36 -35 -96 -50 -135 -29 -76 -50 -132 -89 -240 -14 -38 -30
-79 -35 -90 -5 -11 -14 -36 -21 -55 -7 -19 -23 -62 -35 -95 -13 -33 -47 -123
-75 -200 -28 -77 -62 -167 -75 -200 -13 -33 -40 -105 -60 -160 -49 -133 -58
-158 -88 -235 -14 -36 -42 -110 -62 -165 -20 -55 -45 -121 -55 -146 -11 -25
-26 -68 -36 -95 -9 -27 -22 -62 -29 -79 -7 -16 -25 -64 -40 -105 -14 -41 -37
-102 -50 -135 -12 -33 -28 -76 -35 -95 -7 -19 -18 -48 -25 -65 -7 -16 -20 -50
-29 -75 -8 -25 -29 -81 -46 -125 -17 -44 -38 -100 -46 -125 -8 -25 -19 -54
-24 -65 -6 -11 -22 -51 -36 -90 -51 -139 -93 -251 -119 -320 -15 -38 -30 -81
-35 -95 -4 -14 -17 -47 -28 -75 -11 -27 -19 -68 -18 -90 l1 -40 81 -5 c78 -5
81 -6 114 -43 33 -37 87 -73 97 -63 3 2 24 -3 46 -11 31 -12 80 -16 182 -17
l140 -1 88 43 c49 23 103 53 121 67 18 14 38 25 44 25 6 0 22 21 35 48 14 26
43 81 65 122 63 115 73 138 172 400 51 135 106 271 121 303 66 131 201 263
305 299 88 30 207 37 864 53 649 16 854 15 925 -6 54 -15 126 -52 164 -84 17
-15 31 -23 31 -19 0 15 54 -42 85 -91 34 -54 70 -141 256 -630 67 -176 129
-336 138 -355 l16 -35 105 -6 c58 -3 142 -14 187 -24 79 -17 86 -17 160 -1 46
11 152 21 258 26 99 4 188 8 198 9 15 1 16 4 6 22 -8 16 -8 23 1 29 9 5 7 20
-8 56 -11 27 -37 94 -57 149 -42 115 -53 146 -88 235 -14 36 -41 108 -60 160
-44 120 -154 414 -172 460 -8 19 -41 109 -75 200 -34 91 -67 181 -75 200 -8
19 -41 107 -73 195 -156 417 -195 521 -203 540 -4 11 -24 65 -44 120 -20 55
-47 127 -60 160 -13 33 -47 123 -75 200 -28 77 -62 167 -75 200 -13 33 -40
105 -60 160 -46 124 -82 219 -100 265 -7 19 -29 78 -48 130 -78 210 -158 427
-171 460 -53 136 -68 176 -101 265 -33 92 -55 148 -75 200 -5 11 -11 29 -14
40 -2 11 -23 67 -46 125 -23 58 -48 125 -57 150 -8 25 -21 59 -28 75 -7 17
-29 75 -50 130 -45 123 -56 152 -88 235 -14 36 -50 130 -80 210 l-54 145 -464
2 -464 3 -21 -58z m535 -1846 c33 -18 93 -85 85 -97 -3 -5 4 -9 14 -9 32 0 35
-28 4 -33 -24 -3 -23 -4 8 -7 l35 -2 -30 -8 c-22 -6 -24 -8 -9 -9 16 -1 30
-19 58 -81 20 -43 36 -83 36 -88 0 -5 11 -25 24 -45 13 -19 48 -97 76 -173 29
-77 56 -141 60 -144 4 -3 31 -70 61 -150 29 -80 56 -147 60 -150 9 -6 45 -136
54 -197 4 -24 4 -56 0 -73 l-7 -30 -568 0 c-540 0 -568 1 -572 18 -8 28 19
178 47 270 14 45 23 87 20 92 -3 6 2 10 12 11 16 0 16 1 -2 9 -17 7 -16 9 10
10 30 2 30 2 5 10 -25 8 -25 8 5 10 24 2 26 4 8 7 -33 6 -29 33 5 34 22 1 23
2 5 6 -30 6 -18 33 16 34 22 2 23 2 4 6 -17 3 -21 9 -17 31 3 15 9 31 15 36 5
6 9 18 9 28 0 10 5 18 10 18 6 0 9 6 8 13 -2 6 2 11 7 10 6 -1 12 10 13 25 1
14 5 28 10 31 4 3 7 12 8 19 2 29 5 33 14 27 5 -3 7 0 4 9 -6 15 86 257 134
351 81 162 173 226 261 181z"/>
    <path d="M7208 3393 c7 -3 16 -2 19 1 4 3 -2 6 -13 5 -11 0 -14 -3 -6 -6z"/>
    <path d="M5328 5933 c7 -3 16 -2 19 1 4 3 -2 6 -13 5 -11 0 -14 -3 -6 -6z"/>
    <path d="M4568 4673 c7 -3 16 -2 19 1 4 3 -2 6 -13 5 -11 0 -14 -3 -6 -6z"/>
    <path d="M3888 3713 c7 -3 16 -2 19 1 4 3 -2 6 -13 5 -11 0 -14 -3 -6 -6z"/>
  </g>
</svg>
