<?xml version="1.0" standalone="no"?>
<!DOCTYPE svg PUBLIC "-//W3C//DTD SVG 20010904//EN"
 "http://www.w3.org/TR/2001/REC-SVG-20010904/DTD/svg10.dtd">
<svg version="1.0" xmlns="http://www.w3.org/2000/svg"
 width="512.000000pt" height="512.000000pt" viewBox="0 0 512.000000 512.000000"
 preserveAspectRatio="xMidYMid meet">
<metadata>
Created by potrace 1.14, written by Peter Selinger 2001-2017
</metadata>
<g transform="translate(0.000000,512.000000) scale(0.100000,-0.100000)"
fill="#000000" stroke="none">
<path d="M1650 4605 l0 -225 -800 0 -800 0 0 -230 0 -230 1270 0 c1090 0 1270
-2 1270 -14 0 -31 -115 -298 -189 -441 -134 -257 -250 -430 -450 -669 l-74
-88 -29 33 c-173 206 -317 410 -428 607 l-62 112 -229 0 c-126 0 -229 -3 -229
-7 0 -10 136 -277 164 -322 14 -22 26 -43 26 -46 0 -4 38 -65 85 -137 109
-165 215 -306 350 -463 l50 -58 -280 -275 c-154 -150 -414 -405 -577 -565
-164 -160 -298 -295 -298 -300 0 -15 304 -318 316 -315 7 2 233 221 502 488
269 267 523 519 565 560 l77 74 345 -344 c190 -190 349 -346 354 -348 4 -1 48
102 96 229 l89 231 -115 112 c-63 61 -192 186 -287 278 -94 92 -172 172 -172
178 0 6 28 43 61 83 268 317 606 910 749 1314 l33 93 336 2 336 3 2 200 c1
110 -1 212 -4 227 l-5 28 -797 2 -796 3 -3 223 -2 222 -225 0 -225 0 0 -225z"/>
<path d="M3580 3000 c-10 -19 -1020 -2708 -1020 -2716 0 -2 103 -4 229 -4
l230 0 29 78 c32 81 90 235 176 464 l51 138 540 0 540 0 90 -242 c50 -132 102
-273 116 -312 15 -39 32 -83 38 -98 l11 -28 229 0 c180 0 230 3 226 13 -5 15
-122 331 -140 377 -17 44 -112 298 -200 535 -37 99 -98 261 -135 360 -38 99
-98 261 -135 360 -37 99 -71 189 -76 200 -4 11 -35 94 -69 185 -34 91 -68 181
-75 200 -12 31 -68 180 -140 375 -12 33 -29 77 -38 98 l-16 37 -225 0 c-215 0
-226 -1 -236 -20z m257 -677 c12 -32 83 -220 158 -418 75 -198 147 -388 160
-422 l23 -63 -364 0 -363 0 13 38 c14 38 42 114 173 472 128 349 166 450 173
450 3 0 16 -26 27 -57z"/>
</g>
</svg>
